<svg xmlns="http://www.w3.org/2000/svg" width="1080" height="1080" viewBox="0 0 1080 1080" role="img" aria-labelledby="title desc">
  <title id="title">Packages highlight cover</title>
  <desc id="desc">Premium black and champagne gold Asmaa Studio package cards icon.</desc>
  <defs>
    <radialGradient id="bg" cx="50%" cy="35%" r="72%">
      <stop offset="0%" stop-color="#2d2922"/>
      <stop offset="58%" stop-color="#111113"/>
      <stop offset="100%" stop-color="#050506"/>
    </radialGradient>
    <linearGradient id="gold" x1="210" y1="180" x2="870" y2="900">
      <stop offset="0%" stop-color="#fff2bf"/>
      <stop offset="44%" stop-color="#d7a84f"/>
      <stop offset="100%" stop-color="#7a5422"/>
    </linearGradient>
  </defs>
  <rect width="1080" height="1080" fill="url(#bg)"/>
  <circle cx="540" cy="540" r="372" fill="none" stroke="#d7a84f" stroke-width="6" opacity=".28"/>
  <circle cx="540" cy="540" r="304" fill="none" stroke="#fff2bf" stroke-width="2" opacity=".16"/>
  <g fill="none" stroke="url(#gold)" stroke-linecap="round" stroke-linejoin="round">
    <rect x="282" y="284" width="516" height="158" rx="22" stroke-width="24"/>
    <rect x="282" y="462" width="516" height="158" rx="22" stroke-width="24"/>
    <rect x="282" y="640" width="516" height="158" rx="22" stroke-width="24"/>
    <path d="M354 363h112M354 541h148M354 719h128" stroke-width="20"/>
    <path d="M690 340l36 36 70-86M690 518l36 36 70-86M690 696l36 36 70-86" stroke-width="22"/>
  </g>
  <text x="540" y="892" fill="#fff2bf" text-anchor="middle" font-family="Arial, sans-serif" font-size="48" font-weight="700">PACKAGES</text>
</svg>
